<?xml version="1.0" encoding="utf-8"?>
<!-- Generator: Adobe Illustrator 22.0.1, SVG Export Plug-In . SVG Version: 6.00 Build 0)  -->
<svg version="1.1" id="Layer_1" xmlns="http://www.w3.org/2000/svg" xmlns:xlink="http://www.w3.org/1999/xlink" x="0px" y="0px"
	 viewBox="0 0 210.2 45" style="enable-background:new 0 0 210.2 45;" xml:space="preserve">
<style type="text/css">
	.st0{fill:#2932D2;}
	.st1{fill:url(#SVGID_1_);}
	.st2{fill:url(#SVGID_2_);}
	.st3{fill:#241B69;}
	.st4{fill:#220D41;}
	.st5{fill:url(#SVGID_3_);}
	.st6{fill:url(#SVGID_4_);}
	.st7{fill:url(#SVGID_5_);}
	.st8{fill:none;}
</style>
<path class="st0" d="M62.1,37L42,3.3c-1.1-1.8-3.6-1.8-4.7,0l-5.9,9.9c0,0,4.8,11.7,6.9,15.2S48,41.1,48,41.1h11.7
	C61.8,41.1,63.1,38.8,62.1,37z"/>
<linearGradient id="SVGID_1_" gradientUnits="userSpaceOnUse" x1="13.9469" y1="2.8352" x2="18.9853" y2="43.8699" gradientTransform="matrix(1 0 0 -1 0 45.276)">
	<stop  offset="1.566368e-03" style="stop-color:#E7244F"/>
	<stop  offset="0.7458" style="stop-color:#FD5557"/>
</linearGradient>
<path class="st1" d="M25.6,3.3c-1.1-1.8-3.6-1.8-4.7,0L0.9,37c-1.1,1.8,0.2,4.1,2.3,4.1h11.7c0,0,7.8-9.8,9.9-13.2
	c2.1-3.5,6.7-14.7,6.7-14.7L25.6,3.3z"/>
<path class="st0" d="M72.2,37.4c-4.7-3.9-7.7-9.7-7.7-16.3c0-11.6,9.4-21,21-21c5.8,0,11.1,2.4,14.9,6.2L72.2,37.4z"/>
<g>

		<linearGradient id="SVGID_2_" gradientUnits="userSpaceOnUse" x1="86.6922" y1="2.3576" x2="94.7275" y2="40.1605" gradientTransform="matrix(1 0 0 -1 0 45.276)">
		<stop  offset="1.566368e-03" style="stop-color:#E7244F"/>
		<stop  offset="0.6207" style="stop-color:#FD5557"/>
		<stop  offset="0.8516" style="stop-color:#FD5557"/>
	</linearGradient>
	<path class="st2" d="M72.2,37.4c3.6,3,8.3,4.8,13.3,4.8c11.6,0,21-9.4,21-21c0-5.8-2.4-11.1-6.2-14.9L72.2,37.4z"/>
	<path class="st3" d="M72.2,37.4c-4.7-3.9-7.7-9.7-7.7-16.3c0-11.6,9.4-21,21-21c5.8,0,11.1,2.4,14.9,6.2L72.2,37.4z"/>
</g>
<polygon class="st4" points="14.9,41.1 48.1,41.1 31.5,13.2 "/>
<linearGradient id="SVGID_3_" gradientUnits="userSpaceOnUse" x1="640.9633" y1="-255.0361" x2="686.5633" y2="-255.0361" gradientTransform="matrix(-1 0 0 1 850.8633 276.1361)">
	<stop  offset="1.566368e-03" style="stop-color:#E7244F"/>
	<stop  offset="0.7849" style="stop-color:#FC5457"/>
	<stop  offset="0.965" style="stop-color:#FD5557"/>
</linearGradient>
<path class="st5" d="M187.1,41.1l22.4-35.9c1.1-1.8-0.2-4.1-2.3-4.1H167c-2.1,0-3.4,2.3-2.3,4.1L187.1,41.1z"/>
<path class="st0" d="M176.5,24l-8.7,15.4c-0.4,0.7,0.1,1.7,1,1.7h18.4L176.5,24z"/>
<g>

		<linearGradient id="SVGID_4_" gradientUnits="userSpaceOnUse" x1="146.0295" y1="33.3164" x2="124.9095" y2="52.333" gradientTransform="matrix(1 0 0 -1 0 45.276)">
		<stop  offset="1.566368e-03" style="stop-color:#DD1A40"/>
		<stop  offset="0.965" style="stop-color:#FD5557"/>
	</linearGradient>
	<path class="st6" d="M116.9,1.9c0.5-0.5,1.2-0.8,2-0.8h34.2c0.8,0,1.5,0.3,2,0.8C155.3,2.1,136,21,136,21s-0.4-0.2-1.4-1.1
		C130.1,15.4,116.7,2.1,116.9,1.9z"/>

		<linearGradient id="SVGID_5_" gradientUnits="userSpaceOnUse" x1="-3.1453" y1="1233.4207" x2="35.0596" y2="1233.4207" gradientTransform="matrix(6.123234e-17 1 1 -6.123234e-17 -1087.4707 5.0419)">
		<stop  offset="1.566368e-03" style="stop-color:#E73F4F"/>
		<stop  offset="0.7849" style="stop-color:#FC5457"/>
		<stop  offset="0.965" style="stop-color:#FD5557"/>
	</linearGradient>
	<path class="st7" d="M155.1,1.9c0.5,0.5,0.8,1.2,0.8,2v34.2c0,0.8-0.3,1.5-0.8,2C154.8,40.3,136,21,136,21S154.8,1.6,155.1,1.9z"/>
	<path class="st3" d="M155,40.1c-0.5,0.5-1.2,0.8-2,0.8h-34.2c-0.8,0-1.5-0.3-2-0.8C116.6,39.8,136,21,136,21S155.3,39.8,155,40.1z"
		/>
	<path class="st0" d="M116.9,40.1c-0.5-0.5-0.8-1.2-0.8-2V3.9c0-0.8,0.3-1.5,0.8-2C117.1,1.6,136,21,136,21S117.1,40.3,116.9,40.1z"
		/>
</g>
<line class="st8" x1="100.4" y1="6.3" x2="72.2" y2="37.4"/>
</svg>
